<?xml version="1.0" encoding="UTF-8" standalone="no"?>
<svg
   xmlns:dc="http://purl.org/dc/elements/1.1/"
   xmlns:cc="http://creativecommons.org/ns#"
   xmlns:rdf="http://www.w3.org/1999/02/22-rdf-syntax-ns#"
   xmlns:svg="http://www.w3.org/2000/svg"
   xmlns="http://www.w3.org/2000/svg"
   xmlns:sodipodi="http://sodipodi.sourceforge.net/DTD/sodipodi-0.dtd"
   xmlns:inkscape="http://www.inkscape.org/namespaces/inkscape"
   width="200mm"
   height="200mm"
   viewBox="0 0 200 200"
   version="1.1"
   id="svg8"
   inkscape:version="1.0.1 (3bc2e813f5, 2020-09-07)"
   sodipodi:docname="cactus.svg">
  <defs
     id="defs2">
    <inkscape:path-effect
       effect="skeletal"
       id="path-effect1015"
       is_visible="true"
       lpeversion="1"
       pattern="M 0,5 C 0,2.24 2.24,0 5,0 7.76,0 10,2.24 10,5 10,7.76 7.76,10 5,10 2.24,10 0,7.76 0,5 Z"
       copytype="single_stretched"
       prop_scale="1"
       scale_y_rel="false"
       spacing="0"
       normal_offset="0"
       tang_offset="0"
       prop_units="false"
       vertical_pattern="false"
       hide_knot="false"
       fuse_tolerance="0" />
  </defs>
  <sodipodi:namedview
     id="base"
     pagecolor="#ffffff"
     bordercolor="#666666"
     borderopacity="1.0"
     inkscape:pageopacity="0.0"
     inkscape:pageshadow="2"
     inkscape:zoom="0.93378873"
     inkscape:cx="387.16137"
     inkscape:cy="427.53327"
     inkscape:document-units="mm"
     inkscape:current-layer="g864"
     inkscape:document-rotation="0"
     showgrid="false"
     inkscape:window-width="1920"
     inkscape:window-height="1001"
     inkscape:window-x="-9"
     inkscape:window-y="-9"
     inkscape:window-maximized="1" />
  <metadata
     id="metadata5">
    <rdf:RDF>
      <cc:Work
         rdf:about="">
        <dc:format>image/svg+xml</dc:format>
        <dc:type
           rdf:resource="http://purl.org/dc/dcmitype/StillImage" />
        <dc:title />
      </cc:Work>
    </rdf:RDF>
  </metadata>
  <g
     inkscape:label="Capa 1 copia"
     inkscape:groupmode="layer"
     id="g846"
     style="display:inline">
    <rect
       style="opacity:0.996825;fill:#1a1a1a;fill-opacity:1;stroke:none;stroke-width:0.423499;stroke-linecap:square;stroke-linejoin:round;stroke-opacity:1"
       id="rect838"
       width="34.555923"
       height="144.57651"
       x="76.960815"
       y="44.2472"
       transform="rotate(-3.1153256)" />
    <circle
       style="opacity:0.996825;fill:#1a1a1a;fill-opacity:1;stroke:none;stroke-width:0.424499;stroke-linecap:square;stroke-linejoin:round;stroke-opacity:1"
       id="circle840"
       cx="94.238762"
       cy="43.53545"
       r="17.28775"
       transform="rotate(-3.1153256)" />
    <path
       style="opacity:1;fill:#1a1a1a;fill-opacity:1;stroke:none;stroke-width:0.264583px;stroke-linecap:butt;stroke-linejoin:miter;stroke-opacity:1"
       d="m 87.564616,116.8515 -10.825128,0.58918 C 62.028608,119.72009 63.567956,102.43335 63.567956,102.43335 L 62.938151,90.861662 c 0,0 1.057601,-16.156161 -13.565127,-15.3603 -13.223612,0.708446 -12.544174,17.15572 -12.544174,17.15572 l 1.58467,29.115858 c 1.149795,21.1257 25.725989,25.55562 25.725989,25.55562 l 26.502896,-1.44247 z"
       id="path842"
       sodipodi:nodetypes="cccccccccc" />
    <path
       style="fill:#1a1a1a;fill-opacity:1;stroke:none;stroke-width:0.264583px;stroke-linecap:butt;stroke-linejoin:miter;stroke-opacity:1"
       d="m 110.36854,88.654594 10.82513,-0.589172 c 14.87137,0.669351 11.46496,-16.348207 11.46496,-16.348207 l -0.6298,-11.571692 c 0,0 -2.80481,-15.945944 11.81792,-16.741806 13.22239,-0.730912 14.33201,15.692946 14.33201,15.692946 l 1.58467,29.115868 c 1.14979,21.125699 -22.80045,28.196719 -22.80045,28.196719 l -26.5029,1.44245 z"
       id="path844"
       sodipodi:nodetypes="cccccccccc" />
  </g>
  <g
     inkscape:groupmode="layer"
     id="g864"
     inkscape:label="Capa 2 copia"
     style="display:inline">
    <circle
       style="opacity:1;fill:#1a1a1a;fill-opacity:1;stroke:none;stroke-width:0.209015;stroke-linecap:square;stroke-linejoin:round;stroke-miterlimit:4;stroke-dasharray:none"
       id="circle860"
       cx="179.45995"
       cy="124.08977"
       r="7.9098854"
       transform="rotate(18.114738)" />
    <path
       style="fill:none;stroke:#1a1a1a;stroke-width:13.9343;stroke-linecap:round;stroke-linejoin:round;stroke-miterlimit:4;stroke-dasharray:none;stroke-opacity:1"
       d="m 138.41406,154.65681 4.30386,-13.15622 c 20.66948,6.76171 32.07678,-21.32283 15.91022,-31.86762 -7.75875,-5.06069 -21.78419,-2.50241 -24.74957,6.56228"
       id="path862"
       sodipodi:nodetypes="cccc" />
  </g>
  <g
     inkscape:label="Capa 1"
     inkscape:groupmode="layer"
     id="layer1"
     style="display:inline">
    <rect
       style="opacity:0.996825;fill:#00ff00;fill-opacity:1;stroke:none;stroke-width:0.423499;stroke-linecap:square;stroke-linejoin:round;stroke-opacity:1"
       id="rect1402"
       width="34.555923"
       height="144.57651"
       x="70.586388"
       y="36.238659"
       transform="rotate(-3.1153256)" />
    <circle
       style="opacity:0.996825;fill:#00ff00;fill-opacity:1;stroke:none;stroke-width:0.424499;stroke-linecap:square;stroke-linejoin:round;stroke-opacity:1"
       id="path1404"
       cx="87.864349"
       cy="35.526905"
       r="17.28775"
       transform="rotate(-3.1153256)" />
    <path
       style="opacity:1;fill:#00ff00;fill-opacity:1;stroke:none;stroke-width:0.264583px;stroke-linecap:butt;stroke-linejoin:miter;stroke-opacity:1"
       d="M 80.764363,109.20122 69.939235,109.7904 C 55.228355,112.06981 56.767703,94.783068 56.767703,94.783068 L 56.137898,83.211377 c 0,0 1.057601,-16.156161 -13.565127,-15.3603 -13.223612,0.708446 -12.544174,17.15572 -12.544174,17.15572 l 1.58467,29.115863 c 1.149795,21.1257 25.725989,25.55562 25.725989,25.55562 l 26.502896,-1.44247 z"
       id="path1426"
       sodipodi:nodetypes="cccccccccc" />
    <path
       style="fill:#00ff00;fill-opacity:1;stroke:none;stroke-width:0.264583px;stroke-linecap:butt;stroke-linejoin:miter;stroke-opacity:1"
       d="m 103.56829,81.004309 10.82513,-0.589172 c 14.87137,0.669351 11.46496,-16.348207 11.46496,-16.348207 l -0.6298,-11.571692 c 0,0 -2.80481,-15.945944 11.81792,-16.741806 13.22239,-0.730912 14.33201,15.692946 14.33201,15.692946 l 1.58467,29.115868 c 1.14979,21.125704 -22.80045,28.196724 -22.80045,28.196724 l -26.5029,1.44245 z"
       id="path1426-1"
       sodipodi:nodetypes="cccccccccc" />
  </g>
  <g
     inkscape:groupmode="layer"
     id="layer2"
     inkscape:label="Capa 2"
     style="display:inline">
    <circle
       style="opacity:1;fill:#ff0000;fill-opacity:1;stroke:none;stroke-width:0.209015;stroke-linecap:square;stroke-linejoin:round;stroke-miterlimit:4;stroke-dasharray:none"
       id="path835"
       cx="173.47729"
       cy="120.38264"
       r="7.9098854"
       transform="rotate(18.114738)" />
    <path
       style="fill:none;stroke:#ff0000;stroke-width:13.9343;stroke-linecap:round;stroke-linejoin:round;stroke-miterlimit:4;stroke-dasharray:none;stroke-opacity:1"
       d="m 133.88056,149.27327 4.30386,-13.15622 c 20.66948,6.76171 32.07678,-21.32283 15.91022,-31.86762 -7.75875,-5.060689 -21.78419,-2.50241 -24.74957,6.56228"
       id="path1017"
       sodipodi:nodetypes="cccc" />
  </g>
</svg>
